<svg xmlns="http://www.w3.org/2000/svg" width="960" height="340" viewBox="0 0 960 340"><rect width="960" height="340" rx="16" fill="#0c131d"/><defs><pattern id="grid" width="30" height="30" patternUnits="userSpaceOnUse"><path d="M 30 0 L 0 0 0 30" fill="none" stroke="#1c2938" stroke-width=".6"/></pattern></defs><rect x="550" y="30" width="380" height="280" fill="url(#grid)"/><path d="M32 32h36" stroke="#45dfce" stroke-width="3"/><text x="32" y="66" fill="#8193a9" font-family="monospace" font-size="12" letter-spacing="3">ROBOTICS / PERCEPTION / ENGINEERING</text><text x="28" y="164" fill="#e6edf5" font-family="sans-serif" font-weight="700" font-size="86" letter-spacing="-4">Merci.</text><text x="33" y="206" fill="#e6edf5" font-family="sans-serif" font-size="23">Perception Algorithm Engineer</text><text x="33" y="245" fill="#8193a9" font-family="sans-serif" font-size="15">Turning sensor observations into useful geometry.</text><text x="33" y="302" fill="#45dfce" font-family="monospace" font-size="12" letter-spacing="1">GEOMETRY  /  SENSOR FUSION  /  SIMULATION</text><circle cx="609.3" cy="178.0" r="1.3" fill="#344b61"/><circle cx="617.4" cy="204.2" r="1.3" fill="#344b61"/><circle cx="646.2" cy="164.9" r="1.3" fill="#344b61"/><circle cx="879.3" cy="201.5" r="1.3" fill="#344b61"/><circle cx="693.5" cy="214.7" r="1.3" fill="#344b61"/><circle cx="785.8" cy="237.5" r="1.3" fill="#344b61"/><circle cx="584.3" cy="233.7" r="1.3" fill="#344b61"/><circle cx="753.6" cy="219.0" r="1.3" fill="#344b61"/><circle cx="605.2" cy="202.2" r="1.3" fill="#344b61"/><circle cx="841.1" cy="151.4" r="1.3" fill="#344b61"/><circle cx="657.9" cy="238.8" r="1.3" fill="#344b61"/><circle cx="755.2" cy="163.5" r="1.3" fill="#344b61"/><circle cx="594.5" cy="206.4" r="1.3" fill="#344b61"/><circle cx="626.2" cy="157.1" r="1.3" fill="#344b61"/><circle cx="885.2" cy="224.9" r="1.3" fill="#344b61"/><circle cx="896.2" cy="235.4" r="1.3" fill="#344b61"/><circle cx="607.0" cy="160.5" r="1.3" fill="#344b61"/><circle cx="636.9" cy="157.6" r="1.3" fill="#344b61"/><circle cx="736.7" cy="188.9" r="1.3" fill="#344b61"/><circle cx="842.1" cy="174.0" r="1.3" fill="#344b61"/><circle cx="667.5" cy="214.0" r="1.3" fill="#344b61"/><circle cx="689.0" cy="232.7" r="1.3" fill="#344b61"/><circle cx="647.1" cy="184.3" r="1.3" fill="#344b61"/><circle cx="728.5" cy="251.0" r="1.3" fill="#344b61"/><circle cx="811.8" cy="182.4" r="1.3" fill="#344b61"/><circle cx="852.4" cy="190.6" r="1.3" fill="#344b61"/><circle cx="646.8" cy="174.2" r="1.3" fill="#344b61"/><circle cx="780.5" cy="192.8" r="1.3" fill="#344b61"/><circle cx="762.9" cy="216.0" r="1.3" fill="#344b61"/><circle cx="679.7" cy="255.2" r="1.3" fill="#344b61"/><circle cx="697.8" cy="203.2" r="1.3" fill="#344b61"/><circle cx="582.2" cy="162.0" r="1.3" fill="#344b61"/><circle cx="869.0" cy="216.9" r="1.3" fill="#344b61"/><circle cx="628.5" cy="252.1" r="1.3" fill="#344b61"/><circle cx="745.0" cy="174.6" r="1.3" fill="#344b61"/><circle cx="676.8" cy="174.5" r="1.3" fill="#344b61"/><circle cx="648.9" cy="224.6" r="1.3" fill="#344b61"/><circle cx="663.3" cy="257.0" r="1.3" fill="#344b61"/><circle cx="530.2" cy="168.8" r="1.3" fill="#344b61"/><circle cx="630.8" cy="250.8" r="1.3" fill="#344b61"/><circle cx="781.0" cy="219.8" r="1.3" fill="#344b61"/><circle cx="766.1" cy="252.3" r="1.3" fill="#344b61"/><circle cx="575.8" cy="210.9" r="1.3" fill="#344b61"/><circle cx="892.5" cy="232.2" r="1.3" fill="#344b61"/><circle cx="583.4" cy="179.3" r="1.3" fill="#344b61"/><circle cx="802.8" cy="199.1" r="1.3" fill="#344b61"/><circle cx="806.8" cy="218.0" r="1.3" fill="#344b61"/><circle cx="642.6" cy="225.1" r="1.3" fill="#344b61"/><circle cx="642.1" cy="198.6" r="1.3" fill="#344b61"/><circle cx="781.4" cy="168.1" r="1.3" fill="#344b61"/><circle cx="795.2" cy="234.0" r="1.3" fill="#344b61"/><circle cx="807.1" cy="227.6" r="1.3" fill="#344b61"/><circle cx="605.0" cy="215.7" r="1.3" fill="#344b61"/><circle cx="889.7" cy="207.5" r="1.3" fill="#344b61"/><circle cx="759.5" cy="172.1" r="1.3" fill="#344b61"/><circle cx="787.8" cy="236.4" r="1.3" fill="#344b61"/><circle cx="758.0" cy="182.7" r="1.3" fill="#344b61"/><circle cx="671.1" cy="246.1" r="1.3" fill="#344b61"/><circle cx="560.3" cy="188.2" r="1.3" fill="#344b61"/><circle cx="891.2" cy="249.1" r="1.3" fill="#344b61"/><circle cx="669.9" cy="173.8" r="1.3" fill="#344b61"/><circle cx="818.2" cy="171.1" r="1.3" fill="#344b61"/><circle cx="617.7" cy="223.2" r="1.3" fill="#344b61"/><circle cx="581.4" cy="220.7" r="1.3" fill="#344b61"/><circle cx="817.4" cy="225.6" r="1.3" fill="#344b61"/><circle cx="892.7" cy="222.9" r="1.3" fill="#344b61"/><circle cx="714.3" cy="198.8" r="1.3" fill="#344b61"/><circle cx="712.0" cy="180.9" r="1.3" fill="#344b61"/><circle cx="701.2" cy="171.1" r="1.3" fill="#344b61"/><circle cx="714.7" cy="154.6" r="1.3" fill="#344b61"/><circle cx="804.9" cy="158.6" r="1.3" fill="#344b61"/><circle cx="855.2" cy="182.1" r="1.3" fill="#344b61"/><circle cx="716.9" cy="238.0" r="1.3" fill="#344b61"/><circle cx="636.1" cy="206.9" r="1.3" fill="#344b61"/><circle cx="807.0" cy="202.6" r="1.3" fill="#344b61"/><circle cx="587.2" cy="231.2" r="1.3" fill="#344b61"/><circle cx="757.6" cy="236.9" r="1.3" fill="#344b61"/><circle cx="861.7" cy="219.1" r="1.3" fill="#344b61"/><circle cx="563.2" cy="164.6" r="1.3" fill="#344b61"/><circle cx="727.3" cy="234.6" r="1.3" fill="#344b61"/><circle cx="583.9" cy="205.8" r="1.3" fill="#344b61"/><circle cx="877.3" cy="217.7" r="1.3" fill="#344b61"/><circle cx="649.3" cy="167.2" r="1.3" fill="#344b61"/><circle cx="749.1" cy="172.9" r="1.3" fill="#344b61"/><circle cx="530.5" cy="171.6" r="1.3" fill="#344b61"/><circle cx="889.4" cy="209.8" r="1.3" fill="#344b61"/><circle cx="848.5" cy="239.2" r="1.3" fill="#344b61"/><circle cx="608.7" cy="162.3" r="1.3" fill="#344b61"/><circle cx="636.7" cy="219.5" r="1.3" fill="#344b61"/><circle cx="684.6" cy="242.7" r="1.3" fill="#344b61"/><circle cx="882.5" cy="242.4" r="1.3" fill="#344b61"/><circle cx="880.2" cy="215.0" r="1.3" fill="#344b61"/><circle cx="784.7" cy="218.4" r="1.3" fill="#344b61"/><circle cx="644.7" cy="195.6" r="1.3" fill="#344b61"/><circle cx="853.0" cy="184.2" r="1.3" fill="#344b61"/><circle cx="615.6" cy="194.7" r="1.3" fill="#344b61"/><circle cx="744.9" cy="150.7" r="1.3" fill="#344b61"/><circle cx="655.7" cy="162.1" r="1.3" fill="#344b61"/><circle cx="672.8" cy="152.4" r="1.3" fill="#344b61"/><circle cx="753.2" cy="226.4" r="1.3" fill="#344b61"/><circle cx="761.9" cy="156.8" r="1.3" fill="#344b61"/><circle cx="611.8" cy="220.5" r="1.3" fill="#344b61"/><circle cx="682.8" cy="159.6" r="1.3" fill="#344b61"/><circle cx="873.8" cy="225.0" r="1.3" fill="#344b61"/><circle cx="757.2" cy="186.0" r="1.3" fill="#344b61"/><circle cx="774.5" cy="249.6" r="1.3" fill="#344b61"/><circle cx="664.9" cy="161.5" r="1.3" fill="#344b61"/><circle cx="613.8" cy="159.9" r="1.3" fill="#344b61"/><circle cx="815.4" cy="211.1" r="1.3" fill="#344b61"/><circle cx="651.7" cy="237.6" r="1.3" fill="#344b61"/><circle cx="834.6" cy="186.9" r="1.3" fill="#344b61"/><circle cx="833.4" cy="208.0" r="1.3" fill="#344b61"/><circle cx="778.2" cy="220.0" r="1.3" fill="#344b61"/><circle cx="611.0" cy="211.8" r="1.3" fill="#344b61"/><circle cx="623.7" cy="209.7" r="1.3" fill="#344b61"/><circle cx="693.2" cy="239.6" r="1.3" fill="#344b61"/><circle cx="628.4" cy="164.4" r="1.3" fill="#344b61"/><circle cx="818.9" cy="160.4" r="1.3" fill="#344b61"/><circle cx="630.0" cy="211.2" r="1.3" fill="#344b61"/><circle cx="798.9" cy="235.9" r="1.3" fill="#344b61"/><circle cx="664.9" cy="176.7" r="1.3" fill="#344b61"/><circle cx="895.1" cy="235.0" r="1.3" fill="#344b61"/><circle cx="722.1" cy="203.9" r="1.3" fill="#344b61"/><circle cx="672.3" cy="164.6" r="1.3" fill="#344b61"/><circle cx="537.6" cy="175.7" r="1.3" fill="#344b61"/><circle cx="838.6" cy="212.6" r="1.3" fill="#344b61"/><circle cx="784.5" cy="171.6" r="1.3" fill="#344b61"/><circle cx="718.0" cy="243.8" r="1.3" fill="#344b61"/><circle cx="599.0" cy="160.5" r="1.3" fill="#344b61"/><circle cx="652.8" cy="175.6" r="1.3" fill="#344b61"/><circle cx="561.9" cy="177.0" r="1.3" fill="#344b61"/><circle cx="633.6" cy="189.1" r="1.3" fill="#344b61"/><circle cx="634.3" cy="181.6" r="1.3" fill="#344b61"/><circle cx="752.4" cy="150.2" r="1.3" fill="#344b61"/><circle cx="627.4" cy="215.7" r="1.3" fill="#344b61"/><circle cx="840.7" cy="185.0" r="1.3" fill="#344b61"/><circle cx="616.1" cy="250.2" r="1.3" fill="#344b61"/><circle cx="776.4" cy="240.7" r="1.3" fill="#344b61"/><circle cx="582.9" cy="213.5" r="1.3" fill="#344b61"/><circle cx="652.3" cy="208.7" r="1.3" fill="#344b61"/><circle cx="703.4" cy="186.9" r="1.3" fill="#344b61"/><circle cx="577.8" cy="162.5" r="1.3" fill="#344b61"/><circle cx="560.4" cy="177.1" r="1.3" fill="#344b61"/><circle cx="693.3" cy="208.3" r="1.3" fill="#344b61"/><circle cx="754.1" cy="213.4" r="1.3" fill="#344b61"/><circle cx="676.2" cy="154.3" r="1.3" fill="#344b61"/><circle cx="748.5" cy="196.9" r="1.3" fill="#344b61"/><circle cx="609.6" cy="159.8" r="1.3" fill="#344b61"/><circle cx="787.8" cy="221.9" r="1.3" fill="#344b61"/><circle cx="889.8" cy="222.6" r="1.3" fill="#344b61"/><circle cx="836.1" cy="151.0" r="1.3" fill="#344b61"/><circle cx="836.5" cy="222.2" r="1.3" fill="#344b61"/><circle cx="867.6" cy="197.7" r="1.3" fill="#344b61"/><circle cx="560.8" cy="212.9" r="1.3" fill="#344b61"/><circle cx="738.3" cy="212.2" r="1.3" fill="#344b61"/><circle cx="581.4" cy="245.2" r="1.3" fill="#344b61"/><circle cx="640.7" cy="224.4" r="1.3" fill="#344b61"/><circle cx="634.3" cy="196.7" r="1.3" fill="#344b61"/><circle cx="810.2" cy="190.5" r="1.3" fill="#344b61"/><circle cx="743.6" cy="231.9" r="1.3" fill="#344b61"/><circle cx="710.7" cy="223.7" r="1.3" fill="#344b61"/><circle cx="702.3" cy="227.4" r="1.3" fill="#344b61"/><circle cx="873.8" cy="193.5" r="1.3" fill="#344b61"/><circle cx="661.8" cy="160.7" r="1.3" fill="#344b61"/><circle cx="726.1" cy="164.8" r="1.3" fill="#344b61"/><circle cx="789.8" cy="151.2" r="1.3" fill="#344b61"/><circle cx="632.8" cy="188.6" r="1.3" fill="#344b61"/><circle cx="856.6" cy="209.7" r="1.3" fill="#344b61"/><circle cx="879.6" cy="244.1" r="1.3" fill="#344b61"/><circle cx="602.1" cy="239.0" r="1.3" fill="#344b61"/><circle cx="683.7" cy="233.4" r="1.3" fill="#344b61"/><circle cx="639.2" cy="203.1" r="1.3" fill="#344b61"/><circle cx="763.3" cy="222.6" r="1.3" fill="#344b61"/><circle cx="816.0" cy="147.4" r="1.3" fill="#344b61"/><circle cx="860.7" cy="174.4" r="1.3" fill="#344b61"/><circle cx="854.2" cy="172.2" r="1.3" fill="#344b61"/><circle cx="863.1" cy="199.3" r="1.3" fill="#344b61"/><circle cx="909.9" cy="248.3" r="1.3" fill="#344b61"/><circle cx="777.6" cy="181.4" r="1.3" fill="#344b61"/><circle cx="572.1" cy="174.6" r="1.3" fill="#344b61"/><circle cx="648.3" cy="162.0" r="1.3" fill="#344b61"/><circle cx="886.1" cy="203.8" r="1.3" fill="#344b61"/><circle cx="904.6" cy="233.4" r="1.3" fill="#344b61"/><circle cx="601.8" cy="168.4" r="1.3" fill="#344b61"/><circle cx="821.4" cy="221.1" r="1.3" fill="#344b61"/><circle cx="697.0" cy="212.5" r="1.3" fill="#344b61"/><circle cx="825.6" cy="249.4" r="1.3" fill="#344b61"/><circle cx="728.1" cy="183.5" r="1.3" fill="#344b61"/><circle cx="825.1" cy="246.5" r="1.3" fill="#344b61"/><circle cx="654.0" cy="234.1" r="1.3" fill="#344b61"/><circle cx="685.8" cy="185.7" r="1.3" fill="#344b61"/><circle cx="738.0" cy="217.1" r="1.3" fill="#344b61"/><circle cx="670.5" cy="169.2" r="1.3" fill="#344b61"/><circle cx="854.4" cy="171.5" r="1.3" fill="#344b61"/><circle cx="682.0" cy="252.6" r="1.3" fill="#344b61"/><circle cx="794.2" cy="252.9" r="1.3" fill="#344b61"/><circle cx="658.3" cy="247.4" r="1.3" fill="#344b61"/><circle cx="664.9" cy="256.2" r="1.3" fill="#344b61"/><circle cx="543.2" cy="160.8" r="1.3" fill="#344b61"/><circle cx="886.5" cy="249.5" r="1.3" fill="#344b61"/><circle cx="819.1" cy="167.2" r="1.3" fill="#344b61"/><circle cx="846.8" cy="167.1" r="1.3" fill="#344b61"/><circle cx="633.8" cy="181.9" r="1.3" fill="#344b61"/><circle cx="578.3" cy="200.3" r="1.3" fill="#344b61"/><circle cx="853.4" cy="245.0" r="1.3" fill="#344b61"/><circle cx="580.1" cy="161.9" r="1.3" fill="#344b61"/><circle cx="724.1" cy="236.5" r="1.3" fill="#344b61"/><circle cx="692.2" cy="221.7" r="1.3" fill="#344b61"/><circle cx="537.4" cy="175.0" r="1.3" fill="#344b61"/><circle cx="684.0" cy="192.9" r="1.3" fill="#344b61"/><circle cx="743.0" cy="154.6" r="1.3" fill="#344b61"/><circle cx="826.0" cy="194.1" r="1.3" fill="#344b61"/><circle cx="669.0" cy="193.0" r="1.3" fill="#344b61"/><circle cx="651.5" cy="242.4" r="1.3" fill="#344b61"/><circle cx="757.8" cy="153.5" r="1.3" fill="#344b61"/><circle cx="876.8" cy="241.5" r="1.3" fill="#344b61"/><circle cx="779.3" cy="178.9" r="1.3" fill="#344b61"/><circle cx="807.2" cy="211.4" r="1.3" fill="#344b61"/><circle cx="693.5" cy="173.7" r="1.3" fill="#344b61"/><circle cx="610.6" cy="222.4" r="1.3" fill="#344b61"/><circle cx="579.7" cy="195.4" r="1.3" fill="#344b61"/><circle cx="632.8" cy="179.2" r="1.3" fill="#344b61"/><circle cx="538.2" cy="166.6" r="1.3" fill="#344b61"/><circle cx="725.1" cy="211.9" r="1.3" fill="#344b61"/><circle cx="594.4" cy="230.1" r="1.3" fill="#344b61"/><circle cx="787.6" cy="211.3" r="1.3" fill="#344b61"/><circle cx="639.3" cy="248.3" r="1.3" fill="#344b61"/><circle cx="775.0" cy="253.6" r="1.3" fill="#344b61"/><circle cx="743.5" cy="206.5" r="1.3" fill="#344b61"/><circle cx="772.5" cy="243.8" r="1.3" fill="#344b61"/><circle cx="854.5" cy="236.3" r="1.3" fill="#344b61"/><circle cx="776.8" cy="179.7" r="1.3" fill="#344b61"/><circle cx="831.4" cy="188.7" r="1.3" fill="#344b61"/><circle cx="753.5" cy="189.3" r="1.3" fill="#344b61"/><circle cx="685.4" cy="232.2" r="1.3" fill="#344b61"/><circle cx="607.5" cy="169.4" r="1.3" fill="#344b61"/><circle cx="732.6" cy="206.3" r="1.3" fill="#344b61"/><circle cx="856.3" cy="169.7" r="1.3" fill="#344b61"/><circle cx="764.4" cy="183.6" r="1.3" fill="#344b61"/><circle cx="613.7" cy="201.1" r="1.3" fill="#344b61"/><circle cx="602.4" cy="177.3" r="1.3" fill="#344b61"/><circle cx="760.6" cy="230.2" r="1.3" fill="#344b61"/><circle cx="649.6" cy="154.7" r="1.3" fill="#344b61"/><circle cx="843.9" cy="199.3" r="1.3" fill="#344b61"/><circle cx="664.2" cy="235.2" r="1.3" fill="#344b61"/><circle cx="756.6" cy="244.5" r="1.3" fill="#344b61"/><circle cx="737.6" cy="201.8" r="1.3" fill="#344b61"/><circle cx="687.4" cy="173.3" r="1.3" fill="#344b61"/><circle cx="657.6" cy="172.4" r="1.3" fill="#344b61"/><circle cx="616.3" cy="177.8" r="1.3" fill="#344b61"/><circle cx="712.9" cy="211.1" r="1.3" fill="#344b61"/><circle cx="702.1" cy="237.8" r="1.3" fill="#344b61"/><circle cx="702.1" cy="255.9" r="1.3" fill="#344b61"/><circle cx="680.5" cy="195.9" r="1.3" fill="#344b61"/><circle cx="621.4" cy="222.8" r="1.3" fill="#344b61"/><circle cx="662.6" cy="244.4" r="1.3" fill="#344b61"/><circle cx="851.1" cy="148.0" r="1.3" fill="#344b61"/><circle cx="814.2" cy="220.7" r="1.3" fill="#344b61"/><circle cx="894.2" cy="228.5" r="1.3" fill="#344b61"/><circle cx="712.7" cy="254.4" r="1.3" fill="#344b61"/><circle cx="905.9" cy="234.0" r="1.3" fill="#344b61"/><circle cx="825.4" cy="166.9" r="1.3" fill="#344b61"/><circle cx="778.3" cy="159.2" r="1.3" fill="#344b61"/><circle cx="870.2" cy="197.4" r="1.3" fill="#344b61"/><circle cx="785.4" cy="202.3" r="1.3" fill="#344b61"/><circle cx="680.3" cy="218.5" r="1.3" fill="#344b61"/><circle cx="815.5" cy="162.7" r="1.3" fill="#344b61"/><circle cx="660.7" cy="214.5" r="1.3" fill="#344b61"/><circle cx="732.2" cy="214.1" r="1.3" fill="#344b61"/><circle cx="608.3" cy="199.7" r="1.3" fill="#344b61"/><circle cx="523.7" cy="157.1" r="1.3" fill="#344b61"/><circle cx="636.4" cy="188.6" r="1.3" fill="#344b61"/><circle cx="699.5" cy="179.8" r="1.3" fill="#344b61"/><circle cx="862.3" cy="243.2" r="1.3" fill="#344b61"/><circle cx="570.5" cy="161.1" r="1.3" fill="#344b61"/><circle cx="865.4" cy="222.9" r="1.3" fill="#344b61"/><circle cx="787.4" cy="235.1" r="1.3" fill="#344b61"/><circle cx="700.2" cy="203.9" r="1.3" fill="#344b61"/><circle cx="803.4" cy="212.5" r="1.3" fill="#344b61"/><circle cx="736.3" cy="218.1" r="1.3" fill="#344b61"/><circle cx="683.5" cy="252.1" r="1.3" fill="#344b61"/><circle cx="655.6" cy="177.9" r="1.3" fill="#344b61"/><circle cx="873.2" cy="212.6" r="1.3" fill="#344b61"/><circle cx="856.5" cy="238.2" r="1.3" fill="#344b61"/><circle cx="746.9" cy="166.6" r="1.3" fill="#344b61"/><circle cx="792.0" cy="151.4" r="1.3" fill="#344b61"/><circle cx="829.7" cy="163.2" r="1.3" fill="#344b61"/><circle cx="599.9" cy="187.8" r="1.3" fill="#344b61"/><circle cx="794.9" cy="175.0" r="1.3" fill="#344b61"/><circle cx="752.7" cy="160.1" r="1.3" fill="#344b61"/><circle cx="586.3" cy="158.9" r="1.3" fill="#344b61"/><circle cx="876.6" cy="213.9" r="1.3" fill="#344b61"/><circle cx="658.3" cy="191.9" r="1.3" fill="#344b61"/><circle cx="758.8" cy="252.0" r="1.3" fill="#344b61"/><circle cx="841.2" cy="213.7" r="1.3" fill="#344b61"/><circle cx="743.2" cy="177.0" r="1.3" fill="#344b61"/><circle cx="886.3" cy="210.3" r="1.3" fill="#344b61"/><circle cx="729.8" cy="158.0" r="1.3" fill="#344b61"/><circle cx="799.6" cy="222.2" r="1.3" fill="#344b61"/><circle cx="628.4" cy="194.7" r="1.3" fill="#344b61"/><circle cx="772.9" cy="211.3" r="1.3" fill="#344b61"/><circle cx="834.3" cy="244.9" r="1.3" fill="#344b61"/><circle cx="714.6" cy="158.5" r="1.3" fill="#344b61"/><circle cx="713.8" cy="227.7" r="1.3" fill="#344b61"/><circle cx="796.3" cy="197.2" r="1.3" fill="#344b61"/><circle cx="641.3" cy="231.4" r="1.3" fill="#344b61"/><circle cx="671.0" cy="242.3" r="1.3" fill="#344b61"/><circle cx="616.4" cy="227.0" r="1.3" fill="#344b61"/><circle cx="876.2" cy="199.1" r="1.3" fill="#344b61"/><circle cx="556.5" cy="198.2" r="1.3" fill="#344b61"/><circle cx="785.4" cy="196.5" r="1.3" fill="#344b61"/><circle cx="726.4" cy="254.7" r="1.3" fill="#344b61"/><circle cx="814.9" cy="222.6" r="1.3" fill="#344b61"/><circle cx="768.8" cy="179.0" r="1.3" fill="#344b61"/><circle cx="763.1" cy="193.0" r="1.3" fill="#344b61"/><circle cx="814.9" cy="245.6" r="1.3" fill="#344b61"/><circle cx="673.8" cy="156.5" r="1.3" fill="#344b61"/><circle cx="601.3" cy="181.6" r="1.3" fill="#344b61"/><circle cx="594.8" cy="250.5" r="1.3" fill="#344b61"/><circle cx="532.4" cy="168.3" r="1.3" fill="#344b61"/><circle cx="745.6" cy="163.2" r="1.3" fill="#344b61"/><circle cx="699.0" cy="205.9" r="1.3" fill="#344b61"/><circle cx="876.4" cy="186.3" r="1.3" fill="#344b61"/><circle cx="705.2" cy="219.8" r="1.3" fill="#344b61"/><circle cx="576.8" cy="204.3" r="1.3" fill="#344b61"/><circle cx="580.7" cy="207.2" r="1.3" fill="#344b61"/><circle cx="713.6" cy="198.0" r="1.3" fill="#344b61"/><circle cx="808.0" cy="234.3" r="1.3" fill="#344b61"/><circle cx="596.7" cy="225.3" r="1.3" fill="#344b61"/><circle cx="841.0" cy="206.9" r="1.3" fill="#344b61"/><circle cx="809.4" cy="227.8" r="1.3" fill="#344b61"/><circle cx="832.3" cy="196.6" r="1.3" fill="#344b61"/><circle cx="772.4" cy="193.2" r="1.3" fill="#344b61"/><circle cx="629.0" cy="233.7" r="1.3" fill="#344b61"/><circle cx="604.1" cy="193.8" r="1.3" fill="#344b61"/><circle cx="586.3" cy="214.2" r="1.3" fill="#344b61"/><circle cx="836.1" cy="170.5" r="1.3" fill="#344b61"/><circle cx="596.3" cy="213.2" r="1.3" fill="#344b61"/><circle cx="807.4" cy="150.0" r="1.3" fill="#344b61"/><circle cx="895.1" cy="220.1" r="1.3" fill="#344b61"/><circle cx="719.8" cy="161.3" r="1.3" fill="#344b61"/><circle cx="596.8" cy="223.9" r="1.3" fill="#344b61"/><circle cx="759.8" cy="187.1" r="1.3" fill="#344b61"/><circle cx="714.6" cy="200.8" r="1.3" fill="#344b61"/><circle cx="590.8" cy="255.9" r="1.3" fill="#344b61"/><circle cx="655.5" cy="254.8" r="1.3" fill="#344b61"/><circle cx="667.9" cy="161.1" r="1.3" fill="#344b61"/><circle cx="881.4" cy="230.0" r="1.3" fill="#344b61"/><circle cx="642.6" cy="199.3" r="1.3" fill="#344b61"/><circle cx="801.5" cy="207.6" r="1.3" fill="#344b61"/><circle cx="604.7" cy="201.1" r="1.3" fill="#344b61"/><circle cx="832.9" cy="227.4" r="1.3" fill="#344b61"/><circle cx="825.0" cy="206.8" r="1.3" fill="#344b61"/><circle cx="908.2" cy="232.9" r="1.3" fill="#344b61"/><circle cx="702.9" cy="234.4" r="1.3" fill="#344b61"/><circle cx="573.6" cy="195.1" r="1.3" fill="#344b61"/><circle cx="664.1" cy="160.5" r="1.3" fill="#344b61"/><circle cx="858.9" cy="250.9" r="1.3" fill="#344b61"/><circle cx="693.0" cy="179.1" r="1.3" fill="#344b61"/><circle cx="584.0" cy="188.1" r="1.3" fill="#344b61"/><circle cx="627.0" cy="184.6" r="1.3" fill="#344b61"/><circle cx="780.0" cy="254.9" r="1.3" fill="#344b61"/><circle cx="819.9" cy="240.1" r="1.3" fill="#344b61"/><circle cx="841.7" cy="180.6" r="1.3" fill="#344b61"/><circle cx="602.3" cy="258.2" r="1.3" fill="#344b61"/><circle cx="627.9" cy="193.8" r="1.3" fill="#344b61"/><circle cx="617.6" cy="181.3" r="1.3" fill="#344b61"/><circle cx="582.7" cy="228.4" r="1.3" fill="#344b61"/><circle cx="582.6" cy="186.5" r="1.3" fill="#344b61"/><circle cx="829.6" cy="227.0" r="1.3" fill="#344b61"/><circle cx="691.6" cy="181.7" r="1.3" fill="#344b61"/><circle cx="846.2" cy="234.3" r="1.3" fill="#344b61"/><circle cx="620.5" cy="208.8" r="1.3" fill="#344b61"/><circle cx="544.9" cy="178.0" r="1.3" fill="#344b61"/><circle cx="599.0" cy="188.4" r="1.3" fill="#344b61"/><circle cx="694.9" cy="180.1" r="1.3" fill="#344b61"/><circle cx="657.1" cy="205.9" r="1.3" fill="#344b61"/><circle cx="534.7" cy="168.6" r="1.3" fill="#344b61"/><circle cx="815.9" cy="246.1" r="1.3" fill="#344b61"/><circle cx="714.0" cy="209.8" r="1.3" fill="#344b61"/><circle cx="743.8" cy="215.6" r="1.3" fill="#344b61"/><circle cx="666.9" cy="228.7" r="1.3" fill="#344b61"/><circle cx="810.2" cy="179.8" r="1.3" fill="#344b61"/><circle cx="813.7" cy="201.3" r="1.3" fill="#344b61"/><circle cx="867.6" cy="195.4" r="1.3" fill="#344b61"/><circle cx="831.5" cy="190.1" r="1.3" fill="#344b61"/><circle cx="735.4" cy="187.6" r="1.3" fill="#344b61"/><circle cx="834.3" cy="203.3" r="1.3" fill="#344b61"/><circle cx="542.4" cy="172.8" r="1.3" fill="#344b61"/><circle cx="588.3" cy="226.3" r="1.3" fill="#344b61"/><circle cx="675.4" cy="192.8" r="1.3" fill="#344b61"/><circle cx="592.3" cy="196.2" r="1.3" fill="#344b61"/><circle cx="767.5" cy="159.0" r="1.3" fill="#344b61"/><circle cx="673.1" cy="208.4" r="1.3" fill="#344b61"/><circle cx="828.2" cy="209.2" r="1.3" fill="#344b61"/><circle cx="715.3" cy="246.5" r="1.3" fill="#344b61"/><circle cx="841.9" cy="242.2" r="1.3" fill="#344b61"/><circle cx="735.6" cy="243.7" r="1.3" fill="#344b61"/><circle cx="791.4" cy="227.6" r="1.3" fill="#344b61"/><circle cx="805.2" cy="244.5" r="1.3" fill="#344b61"/><circle cx="874.8" cy="219.3" r="1.3" fill="#344b61"/><circle cx="752.8" cy="155.1" r="1.3" fill="#344b61"/><circle cx="658.1" cy="160.6" r="1.3" fill="#344b61"/><circle cx="851.7" cy="195.2" r="1.3" fill="#344b61"/><circle cx="752.9" cy="173.0" r="1.3" fill="#344b61"/><circle cx="871.3" cy="205.9" r="1.3" fill="#344b61"/><circle cx="628.7" cy="225.2" r="1.3" fill="#344b61"/><circle cx="713.8" cy="167.9" r="1.3" fill="#344b61"/><circle cx="582.4" cy="233.5" r="1.3" fill="#344b61"/><circle cx="857.9" cy="172.8" r="1.3" fill="#344b61"/><circle cx="666.7" cy="222.2" r="1.3" fill="#344b61"/><circle cx="595.6" cy="189.9" r="1.3" fill="#344b61"/><circle cx="829.3" cy="151.8" r="1.3" fill="#344b61"/><circle cx="658.1" cy="235.9" r="1.3" fill="#344b61"/><circle cx="603.6" cy="172.1" r="1.3" fill="#344b61"/><circle cx="658.4" cy="220.2" r="1.3" fill="#344b61"/><circle cx="561.6" cy="172.5" r="1.3" fill="#344b61"/><circle cx="832.0" cy="182.0" r="1.3" fill="#344b61"/><circle cx="639.5" cy="184.7" r="1.3" fill="#344b61"/><circle cx="768.2" cy="165.9" r="1.3" fill="#344b61"/><circle cx="621.9" cy="192.3" r="1.3" fill="#344b61"/><circle cx="769.2" cy="215.4" r="1.3" fill="#344b61"/><circle cx="710.7" cy="227.2" r="1.3" fill="#344b61"/><circle cx="613.4" cy="161.9" r="1.3" fill="#344b61"/><circle cx="539.9" cy="161.8" r="1.3" fill="#344b61"/><circle cx="592.1" cy="176.0" r="1.3" fill="#344b61"/><circle cx="611.3" cy="225.9" r="1.3" fill="#344b61"/><circle cx="547.6" cy="167.3" r="1.3" fill="#344b61"/><circle cx="536.7" cy="159.8" r="1.3" fill="#344b61"/><circle cx="646.4" cy="249.3" r="1.3" fill="#344b61"/><circle cx="573.5" cy="188.5" r="1.3" fill="#344b61"/><circle cx="552.4" cy="202.0" r="1.3" fill="#344b61"/><circle cx="727.5" cy="152.7" r="1.3" fill="#344b61"/><circle cx="756.3" cy="183.7" r="1.3" fill="#344b61"/><circle cx="603.2" cy="194.2" r="1.3" fill="#344b61"/><circle cx="740.7" cy="204.7" r="1.3" fill="#344b61"/><circle cx="640.6" cy="217.7" r="1.3" fill="#344b61"/><circle cx="546.7" cy="164.3" r="1.3" fill="#344b61"/><circle cx="824.0" cy="247.3" r="1.3" fill="#344b61"/><circle cx="864.5" cy="195.1" r="1.3" fill="#344b61"/><circle cx="832.3" cy="232.7" r="1.3" fill="#344b61"/><circle cx="649.8" cy="255.0" r="1.3" fill="#344b61"/><circle cx="753.8" cy="180.7" r="1.3" fill="#344b61"/><circle cx="634.3" cy="234.1" r="1.3" fill="#344b61"/><circle cx="740.0" cy="215.6" r="1.3" fill="#344b61"/><circle cx="702.1" cy="158.4" r="1.3" fill="#344b61"/><circle cx="609.6" cy="254.9" r="1.3" fill="#344b61"/><circle cx="780.0" cy="192.4" r="1.3" fill="#344b61"/><circle cx="613.6" cy="208.0" r="1.3" fill="#344b61"/><circle cx="765.4" cy="216.9" r="1.3" fill="#344b61"/><circle cx="650.6" cy="158.1" r="1.3" fill="#344b61"/><circle cx="585.8" cy="226.7" r="1.3" fill="#344b61"/><circle cx="849.6" cy="241.0" r="1.3" fill="#344b61"/><circle cx="808.2" cy="169.1" r="1.3" fill="#344b61"/><circle cx="638.9" cy="244.9" r="1.3" fill="#344b61"/><circle cx="840.0" cy="248.5" r="1.3" fill="#344b61"/><circle cx="816.8" cy="168.4" r="1.3" fill="#344b61"/><circle cx="831.7" cy="244.3" r="1.3" fill="#344b61"/><circle cx="840.9" cy="227.9" r="1.3" fill="#344b61"/><circle cx="823.8" cy="169.9" r="1.3" fill="#344b61"/><circle cx="577.7" cy="212.5" r="1.3" fill="#344b61"/><circle cx="881.0" cy="237.5" r="1.3" fill="#344b61"/><circle cx="668.1" cy="190.2" r="1.3" fill="#344b61"/><circle cx="819.0" cy="162.9" r="1.3" fill="#344b61"/><circle cx="637.6" cy="228.3" r="1.3" fill="#344b61"/><circle cx="697.7" cy="233.9" r="1.3" fill="#344b61"/><circle cx="778.3" cy="171.0" r="1.3" fill="#344b61"/><circle cx="742.8" cy="227.8" r="1.3" fill="#344b61"/><circle cx="585.7" cy="204.8" r="1.3" fill="#344b61"/><circle cx="750.1" cy="223.5" r="1.3" fill="#344b61"/><circle cx="664.2" cy="195.5" r="1.3" fill="#344b61"/><circle cx="782.6" cy="243.9" r="1.3" fill="#344b61"/><circle cx="586.6" cy="221.0" r="1.3" fill="#344b61"/><circle cx="816.6" cy="185.5" r="1.3" fill="#344b61"/><circle cx="769.1" cy="161.6" r="1.3" fill="#344b61"/><circle cx="612.0" cy="154.7" r="1.3" fill="#344b61"/><circle cx="773.6" cy="199.3" r="1.3" fill="#344b61"/><circle cx="776.9" cy="191.8" r="1.3" fill="#344b61"/><circle cx="880.1" cy="251.0" r="1.3" fill="#344b61"/><circle cx="689.7" cy="212.6" r="1.3" fill="#344b61"/><circle cx="820.5" cy="185.5" r="1.3" fill="#344b61"/><circle cx="794.2" cy="222.5" r="1.3" fill="#344b61"/><circle cx="590.0" cy="158.7" r="1.3" fill="#344b61"/><circle cx="564.9" cy="212.2" r="1.3" fill="#344b61"/><circle cx="864.5" cy="231.7" r="1.3" fill="#344b61"/><circle cx="589.6" cy="257.0" r="1.3" fill="#344b61"/><circle cx="599.5" cy="225.8" r="1.3" fill="#344b61"/><circle cx="587.2" cy="204.4" r="1.3" fill="#344b61"/><circle cx="630.6" cy="240.9" r="1.3" fill="#344b61"/><circle cx="591.8" cy="204.2" r="1.3" fill="#344b61"/><circle cx="801.2" cy="164.8" r="1.3" fill="#344b61"/><circle cx="589.7" cy="250.0" r="1.3" fill="#344b61"/><circle cx="622.0" cy="217.8" r="1.3" fill="#344b61"/><circle cx="612.9" cy="252.2" r="1.3" fill="#344b61"/><circle cx="861.2" cy="192.6" r="1.3" fill="#344b61"/><circle cx="758.6" cy="228.4" r="1.3" fill="#344b61"/><circle cx="558.0" cy="184.9" r="1.3" fill="#344b61"/><circle cx="736.4" cy="179.5" r="1.3" fill="#344b61"/><circle cx="817.8" cy="223.7" r="1.3" fill="#344b61"/><circle cx="830.7" cy="154.4" r="1.3" fill="#344b61"/><circle cx="724.7" cy="210.7" r="1.3" fill="#344b61"/><circle cx="754.6" cy="191.5" r="1.3" fill="#344b61"/><circle cx="788.4" cy="229.0" r="1.3" fill="#344b61"/><circle cx="587.6" cy="187.1" r="1.3" fill="#344b61"/><circle cx="706.6" cy="170.1" r="1.3" fill="#344b61"/><circle cx="782.1" cy="175.4" r="1.3" fill="#344b61"/><circle cx="732.4" cy="226.7" r="1.3" fill="#344b61"/><circle cx="848.0" cy="146.8" r="1.3" fill="#344b61"/><circle cx="807.5" cy="173.8" r="1.3" fill="#344b61"/><circle cx="834.4" cy="221.5" r="1.3" fill="#344b61"/><circle cx="687.2" cy="195.7" r="1.3" fill="#344b61"/><circle cx="664.5" cy="207.2" r="1.3" fill="#344b61"/><circle cx="843.6" cy="180.4" r="1.3" fill="#344b61"/><circle cx="823.1" cy="161.2" r="1.3" fill="#344b61"/><circle cx="733.8" cy="216.6" r="1.3" fill="#344b61"/><circle cx="810.2" cy="156.5" r="1.3" fill="#344b61"/><circle cx="847.3" cy="179.3" r="1.3" fill="#344b61"/><circle cx="874.7" cy="208.6" r="1.3" fill="#344b61"/><circle cx="848.3" cy="191.0" r="1.3" fill="#344b61"/><circle cx="805.1" cy="226.1" r="1.3" fill="#344b61"/><circle cx="702.7" cy="219.7" r="1.3" fill="#344b61"/><circle cx="737.0" cy="209.2" r="1.3" fill="#344b61"/><circle cx="579.1" cy="242.0" r="1.3" fill="#344b61"/><circle cx="838.8" cy="224.2" r="1.3" fill="#344b61"/><circle cx="754.6" cy="235.8" r="1.3" fill="#344b61"/><circle cx="830.3" cy="222.3" r="1.3" fill="#344b61"/><circle cx="834.2" cy="227.0" r="1.3" fill="#344b61"/><circle cx="765.5" cy="216.5" r="1.3" fill="#344b61"/><circle cx="733.5" cy="152.0" r="1.3" fill="#344b61"/><circle cx="718.8" cy="155.1" r="1.3" fill="#344b61"/><circle cx="848.7" cy="220.1" r="1.3" fill="#344b61"/><circle cx="662.3" cy="158.0" r="1.3" fill="#344b61"/><circle cx="798.9" cy="215.5" r="1.3" fill="#344b61"/><circle cx="593.2" cy="188.0" r="1.3" fill="#344b61"/><circle cx="849.2" cy="165.0" r="1.3" fill="#344b61"/><circle cx="838.1" cy="234.9" r="1.3" fill="#344b61"/><circle cx="850.6" cy="163.5" r="1.3" fill="#344b61"/><circle cx="599.5" cy="180.2" r="1.3" fill="#344b61"/><circle cx="629.0" cy="193.7" r="1.3" fill="#344b61"/><circle cx="737.0" cy="230.1" r="1.3" fill="#344b61"/><circle cx="774.8" cy="240.9" r="1.3" fill="#344b61"/><circle cx="878.3" cy="222.9" r="1.3" fill="#344b61"/><circle cx="888.3" cy="205.9" r="1.3" fill="#344b61"/><circle cx="726.2" cy="228.5" r="1.3" fill="#344b61"/><circle cx="802.4" cy="181.1" r="1.3" fill="#344b61"/><circle cx="743.5" cy="192.7" r="1.3" fill="#344b61"/><circle cx="761.2" cy="244.9" r="1.3" fill="#344b61"/><circle cx="898.7" cy="220.9" r="1.3" fill="#344b61"/><circle cx="686.9" cy="245.1" r="1.3" fill="#344b61"/><circle cx="852.4" cy="179.5" r="1.3" fill="#344b61"/><circle cx="797.7" cy="189.7" r="1.6" fill="#45dfce" opacity="0.67"/><circle cx="745.3" cy="210.9" r="1.6" fill="#45dfce" opacity="0.40"/><circle cx="714.1" cy="142.1" r="1.6" fill="#45dfce" opacity="0.51"/><circle cx="765.7" cy="146.8" r="1.6" fill="#45dfce" opacity="0.65"/><circle cx="761.3" cy="172.8" r="1.6" fill="#45dfce" opacity="0.39"/><circle cx="774.6" cy="188.6" r="1.6" fill="#45dfce" opacity="0.54"/><circle cx="795.2" cy="217.9" r="1.6" fill="#45dfce" opacity="0.60"/><circle cx="765.2" cy="210.0" r="1.6" fill="#45dfce" opacity="0.67"/><circle cx="769.6" cy="126.9" r="1.6" fill="#45dfce" opacity="0.62"/><circle cx="750.5" cy="186.3" r="1.6" fill="#45dfce" opacity="0.51"/><circle cx="742.1" cy="157.0" r="1.6" fill="#45dfce" opacity="0.94"/><circle cx="740.4" cy="154.5" r="1.6" fill="#45dfce" opacity="0.55"/><circle cx="739.0" cy="143.2" r="1.6" fill="#45dfce" opacity="0.78"/><circle cx="812.4" cy="197.2" r="1.6" fill="#45dfce" opacity="0.89"/><circle cx="786.9" cy="125.4" r="1.6" fill="#45dfce" opacity="0.48"/><circle cx="754.9" cy="143.8" r="1.6" fill="#45dfce" opacity="0.79"/><circle cx="762.3" cy="196.3" r="1.6" fill="#45dfce" opacity="0.54"/><circle cx="717.3" cy="139.1" r="1.6" fill="#45dfce" opacity="0.47"/><circle cx="746.5" cy="210.8" r="1.6" fill="#45dfce" opacity="0.87"/><circle cx="801.8" cy="142.8" r="1.6" fill="#45dfce" opacity="0.55"/><circle cx="726.9" cy="129.6" r="1.6" fill="#45dfce" opacity="0.92"/><circle cx="775.5" cy="208.4" r="1.6" fill="#45dfce" opacity="0.82"/><circle cx="802.9" cy="147.7" r="1.6" fill="#45dfce" opacity="0.81"/><circle cx="730.9" cy="133.4" r="1.6" fill="#45dfce" opacity="0.55"/><circle cx="742.8" cy="223.5" r="1.6" fill="#45dfce" opacity="0.65"/><circle cx="771.5" cy="141.1" r="1.6" fill="#45dfce" opacity="0.75"/><circle cx="750.9" cy="104.5" r="1.6" fill="#45dfce" opacity="0.73"/><circle cx="814.0" cy="218.8" r="1.6" fill="#45dfce" opacity="0.65"/><circle cx="795.7" cy="109.3" r="1.6" fill="#45dfce" opacity="0.47"/><circle cx="707.2" cy="110.3" r="1.6" fill="#45dfce" opacity="0.57"/><circle cx="728.5" cy="137.0" r="1.6" fill="#45dfce" opacity="0.69"/><circle cx="748.1" cy="115.3" r="1.6" fill="#45dfce" opacity="0.71"/><circle cx="756.9" cy="104.5" r="1.6" fill="#45dfce" opacity="0.41"/><circle cx="791.4" cy="141.2" r="1.6" fill="#45dfce" opacity="0.71"/><circle cx="794.0" cy="182.9" r="1.6" fill="#45dfce" opacity="0.87"/><circle cx="749.3" cy="111.4" r="1.6" fill="#45dfce" opacity="0.43"/><circle cx="775.8" cy="172.8" r="1.6" fill="#45dfce" opacity="0.81"/><circle cx="746.1" cy="193.6" r="1.6" fill="#45dfce" opacity="0.95"/><circle cx="758.7" cy="209.6" r="1.6" fill="#45dfce" opacity="0.82"/><circle cx="807.1" cy="219.7" r="1.6" fill="#45dfce" opacity="0.61"/><circle cx="735.0" cy="135.3" r="1.6" fill="#45dfce" opacity="0.93"/><circle cx="818.1" cy="215.0" r="1.6" fill="#45dfce" opacity="0.40"/><circle cx="753.6" cy="213.8" r="1.6" fill="#45dfce" opacity="0.60"/><circle cx="787.6" cy="154.5" r="1.6" fill="#45dfce" opacity="0.79"/><circle cx="760.0" cy="167.7" r="1.6" fill="#45dfce" opacity="0.54"/><circle cx="782.2" cy="142.7" r="1.6" fill="#45dfce" opacity="0.56"/><circle cx="714.7" cy="127.9" r="1.6" fill="#45dfce" opacity="0.39"/><circle cx="730.7" cy="152.2" r="1.6" fill="#45dfce" opacity="0.74"/><circle cx="790.8" cy="178.0" r="1.6" fill="#45dfce" opacity="0.58"/><circle cx="796.5" cy="166.0" r="1.6" fill="#45dfce" opacity="0.92"/><circle cx="776.4" cy="106.6" r="1.6" fill="#45dfce" opacity="0.60"/><circle cx="762.1" cy="160.6" r="1.6" fill="#45dfce" opacity="0.60"/><circle cx="751.3" cy="194.5" r="1.6" fill="#45dfce" opacity="0.88"/><circle cx="722.0" cy="131.8" r="1.6" fill="#45dfce" opacity="0.65"/><circle cx="742.5" cy="150.2" r="1.6" fill="#45dfce" opacity="0.60"/><circle cx="772.4" cy="205.1" r="1.6" fill="#45dfce" opacity="0.95"/><circle cx="747.5" cy="105.3" r="1.6" fill="#45dfce" opacity="0.62"/><circle cx="809.7" cy="177.7" r="1.6" fill="#45dfce" opacity="0.76"/><circle cx="739.7" cy="144.6" r="1.6" fill="#45dfce" opacity="0.66"/><circle cx="804.3" cy="152.4" r="1.6" fill="#45dfce" opacity="0.59"/><circle cx="748.7" cy="133.3" r="1.6" fill="#45dfce" opacity="0.93"/><circle cx="751.5" cy="219.6" r="1.6" fill="#45dfce" opacity="0.76"/><circle cx="726.8" cy="138.5" r="1.6" fill="#45dfce" opacity="0.63"/><circle cx="749.6" cy="166.6" r="1.6" fill="#45dfce" opacity="0.67"/><circle cx="750.8" cy="190.9" r="1.6" fill="#45dfce" opacity="0.94"/><circle cx="742.3" cy="128.1" r="1.6" fill="#45dfce" opacity="0.71"/><circle cx="758.0" cy="178.2" r="1.6" fill="#45dfce" opacity="0.42"/><circle cx="786.4" cy="173.6" r="1.6" fill="#45dfce" opacity="0.45"/><circle cx="788.3" cy="113.8" r="1.6" fill="#45dfce" opacity="0.56"/><circle cx="786.5" cy="127.0" r="1.6" fill="#45dfce" opacity="0.84"/><circle cx="750.1" cy="135.2" r="1.6" fill="#45dfce" opacity="0.81"/><circle cx="758.4" cy="192.9" r="1.6" fill="#45dfce" opacity="0.71"/><circle cx="759.4" cy="170.4" r="1.6" fill="#45dfce" opacity="0.76"/><circle cx="808.4" cy="193.3" r="1.6" fill="#45dfce" opacity="0.58"/><circle cx="761.8" cy="210.8" r="1.6" fill="#45dfce" opacity="0.87"/><circle cx="806.1" cy="196.0" r="1.6" fill="#45dfce" opacity="0.88"/><circle cx="776.8" cy="123.1" r="1.6" fill="#45dfce" opacity="0.63"/><circle cx="745.0" cy="213.9" r="1.6" fill="#45dfce" opacity="0.66"/><circle cx="759.4" cy="219.3" r="1.6" fill="#45dfce" opacity="0.46"/><circle cx="706.9" cy="114.4" r="1.6" fill="#45dfce" opacity="0.48"/><circle cx="806.5" cy="221.0" r="1.6" fill="#45dfce" opacity="0.82"/><circle cx="776.2" cy="135.5" r="1.6" fill="#45dfce" opacity="0.61"/><circle cx="791.4" cy="210.9" r="1.6" fill="#45dfce" opacity="0.42"/><circle cx="728.1" cy="143.3" r="1.6" fill="#45dfce" opacity="0.71"/><circle cx="704.0" cy="108.8" r="1.6" fill="#45dfce" opacity="0.66"/><circle cx="804.4" cy="178.3" r="1.6" fill="#45dfce" opacity="0.75"/><circle cx="746.8" cy="151.4" r="1.6" fill="#45dfce" opacity="0.86"/><circle cx="792.7" cy="198.6" r="1.6" fill="#45dfce" opacity="0.72"/><circle cx="743.6" cy="196.7" r="1.6" fill="#45dfce" opacity="0.82"/><circle cx="758.5" cy="202.0" r="1.6" fill="#45dfce" opacity="0.49"/><circle cx="726.4" cy="128.9" r="1.6" fill="#45dfce" opacity="0.45"/><circle cx="814.8" cy="179.0" r="1.6" fill="#45dfce" opacity="0.72"/><circle cx="793.4" cy="150.8" r="1.6" fill="#45dfce" opacity="0.74"/><circle cx="775.0" cy="169.6" r="1.6" fill="#45dfce" opacity="0.92"/><circle cx="725.4" cy="156.8" r="1.6" fill="#45dfce" opacity="0.54"/><circle cx="801.2" cy="131.3" r="1.6" fill="#45dfce" opacity="0.75"/><circle cx="775.6" cy="219.0" r="1.6" fill="#45dfce" opacity="0.68"/><circle cx="765.8" cy="116.6" r="1.6" fill="#45dfce" opacity="0.83"/><circle cx="744.4" cy="144.4" r="1.6" fill="#45dfce" opacity="0.39"/><circle cx="773.1" cy="132.1" r="1.6" fill="#45dfce" opacity="0.46"/><circle cx="812.7" cy="206.6" r="1.6" fill="#45dfce" opacity="0.90"/><circle cx="813.6" cy="173.6" r="1.6" fill="#45dfce" opacity="0.67"/><circle cx="734.1" cy="133.0" r="1.6" fill="#45dfce" opacity="0.53"/><circle cx="784.8" cy="121.2" r="1.6" fill="#45dfce" opacity="0.55"/><circle cx="734.2" cy="152.8" r="1.6" fill="#45dfce" opacity="0.50"/><circle cx="765.9" cy="194.6" r="1.6" fill="#45dfce" opacity="0.43"/><circle cx="753.3" cy="208.5" r="1.6" fill="#45dfce" opacity="0.41"/><circle cx="781.3" cy="140.6" r="1.6" fill="#45dfce" opacity="0.93"/><circle cx="754.5" cy="131.4" r="1.6" fill="#45dfce" opacity="0.50"/><circle cx="739.8" cy="176.0" r="1.6" fill="#45dfce" opacity="0.82"/><circle cx="795.0" cy="132.8" r="1.6" fill="#45dfce" opacity="0.61"/><circle cx="766.6" cy="114.1" r="1.6" fill="#45dfce" opacity="0.68"/><circle cx="757.4" cy="137.1" r="1.6" fill="#45dfce" opacity="0.53"/><circle cx="736.6" cy="105.8" r="1.6" fill="#45dfce" opacity="0.62"/><circle cx="731.7" cy="172.4" r="1.6" fill="#45dfce" opacity="0.73"/><circle cx="806.3" cy="212.1" r="1.6" fill="#45dfce" opacity="0.64"/><circle cx="817.7" cy="208.3" r="1.6" fill="#45dfce" opacity="0.71"/><circle cx="774.4" cy="166.5" r="1.6" fill="#45dfce" opacity="0.76"/><circle cx="785.8" cy="160.3" r="1.6" fill="#45dfce" opacity="0.83"/><circle cx="722.2" cy="111.5" r="1.6" fill="#45dfce" opacity="0.54"/><circle cx="768.2" cy="178.7" r="1.6" fill="#45dfce" opacity="0.79"/><circle cx="736.8" cy="148.2" r="1.6" fill="#45dfce" opacity="0.59"/><circle cx="758.4" cy="193.5" r="1.6" fill="#45dfce" opacity="0.46"/><circle cx="748.6" cy="201.7" r="1.6" fill="#45dfce" opacity="0.77"/><circle cx="749.3" cy="223.9" r="1.6" fill="#45dfce" opacity="0.72"/><circle cx="715.0" cy="122.3" r="1.6" fill="#45dfce" opacity="0.53"/><circle cx="805.9" cy="189.5" r="1.6" fill="#45dfce" opacity="0.43"/><circle cx="736.8" cy="157.2" r="1.6" fill="#45dfce" opacity="0.60"/><circle cx="761.8" cy="198.0" r="1.6" fill="#45dfce" opacity="0.70"/><circle cx="784.6" cy="205.0" r="1.6" fill="#45dfce" opacity="0.77"/><circle cx="729.8" cy="131.0" r="1.6" fill="#45dfce" opacity="0.43"/><circle cx="728.7" cy="119.8" r="1.6" fill="#45dfce" opacity="0.93"/><circle cx="757.7" cy="221.1" r="1.6" fill="#45dfce" opacity="0.58"/><circle cx="784.1" cy="218.3" r="1.6" fill="#45dfce" opacity="0.77"/><circle cx="780.3" cy="108.8" r="1.6" fill="#45dfce" opacity="0.76"/><circle cx="799.5" cy="164.6" r="1.6" fill="#45dfce" opacity="0.91"/><circle cx="734.5" cy="165.2" r="1.6" fill="#45dfce" opacity="0.84"/><circle cx="787.2" cy="170.2" r="1.6" fill="#45dfce" opacity="0.63"/><circle cx="792.7" cy="134.2" r="1.6" fill="#45dfce" opacity="0.59"/><circle cx="749.2" cy="138.0" r="1.6" fill="#45dfce" opacity="0.69"/><circle cx="792.6" cy="135.4" r="1.6" fill="#45dfce" opacity="0.55"/><circle cx="734.6" cy="176.9" r="1.6" fill="#45dfce" opacity="0.41"/><circle cx="740.1" cy="195.0" r="1.6" fill="#45dfce" opacity="0.39"/><circle cx="785.2" cy="140.2" r="1.6" fill="#45dfce" opacity="0.92"/><circle cx="751.3" cy="127.8" r="1.6" fill="#45dfce" opacity="0.76"/><circle cx="778.3" cy="144.8" r="1.6" fill="#45dfce" opacity="0.48"/><circle cx="764.4" cy="156.4" r="1.6" fill="#45dfce" opacity="0.77"/><circle cx="755.8" cy="165.3" r="1.6" fill="#45dfce" opacity="0.50"/><circle cx="729.2" cy="199.1" r="1.6" fill="#45dfce" opacity="0.77"/><circle cx="773.3" cy="186.6" r="1.6" fill="#45dfce" opacity="0.91"/><circle cx="707.3" cy="123.2" r="1.6" fill="#45dfce" opacity="0.85"/><circle cx="785.6" cy="182.6" r="1.6" fill="#45dfce" opacity="0.80"/><circle cx="783.2" cy="207.1" r="1.6" fill="#45dfce" opacity="0.41"/><circle cx="766.9" cy="191.9" r="1.6" fill="#45dfce" opacity="0.44"/><circle cx="774.4" cy="148.5" r="1.6" fill="#45dfce" opacity="0.79"/><circle cx="759.4" cy="170.3" r="1.6" fill="#45dfce" opacity="0.40"/><circle cx="734.1" cy="119.0" r="1.6" fill="#45dfce" opacity="0.84"/><circle cx="734.6" cy="157.9" r="1.6" fill="#45dfce" opacity="0.72"/><circle cx="738.6" cy="217.3" r="1.6" fill="#45dfce" opacity="0.71"/><circle cx="797.8" cy="159.5" r="1.6" fill="#45dfce" opacity="0.59"/><circle cx="813.7" cy="173.6" r="1.6" fill="#45dfce" opacity="0.87"/><circle cx="762.0" cy="172.2" r="1.6" fill="#45dfce" opacity="0.91"/><circle cx="807.7" cy="202.2" r="1.6" fill="#45dfce" opacity="0.59"/><circle cx="780.3" cy="111.7" r="1.6" fill="#45dfce" opacity="0.51"/><circle cx="710.9" cy="114.9" r="1.6" fill="#45dfce" opacity="0.72"/><circle cx="745.8" cy="177.2" r="1.6" fill="#45dfce" opacity="0.71"/><circle cx="798.4" cy="214.9" r="1.6" fill="#45dfce" opacity="0.53"/><circle cx="781.7" cy="115.7" r="1.6" fill="#45dfce" opacity="0.79"/><circle cx="769.9" cy="126.5" r="1.6" fill="#45dfce" opacity="0.66"/><circle cx="728.3" cy="110.5" r="1.6" fill="#45dfce" opacity="0.90"/><circle cx="784.7" cy="122.5" r="1.6" fill="#45dfce" opacity="0.68"/><circle cx="753.0" cy="151.2" r="1.6" fill="#45dfce" opacity="0.68"/><circle cx="737.3" cy="126.9" r="1.6" fill="#45dfce" opacity="0.72"/><circle cx="773.9" cy="157.0" r="1.6" fill="#45dfce" opacity="0.82"/><circle cx="802.8" cy="141.8" r="1.6" fill="#45dfce" opacity="0.74"/><circle cx="793.4" cy="195.0" r="1.6" fill="#45dfce" opacity="0.80"/><circle cx="808.3" cy="151.9" r="1.6" fill="#45dfce" opacity="0.81"/><circle cx="779.0" cy="193.8" r="1.6" fill="#45dfce" opacity="0.94"/><circle cx="804.9" cy="186.1" r="1.6" fill="#45dfce" opacity="0.75"/><circle cx="756.4" cy="178.9" r="1.6" fill="#45dfce" opacity="0.44"/><circle cx="788.1" cy="179.0" r="1.6" fill="#45dfce" opacity="0.43"/><circle cx="719.2" cy="124.5" r="1.6" fill="#45dfce" opacity="0.64"/><circle cx="777.3" cy="169.9" r="1.6" fill="#45dfce" opacity="0.43"/><circle cx="794.0" cy="127.9" r="1.6" fill="#45dfce" opacity="0.39"/><circle cx="798.0" cy="124.1" r="1.6" fill="#45dfce" opacity="0.35"/><circle cx="787.9" cy="181.1" r="1.6" fill="#45dfce" opacity="0.37"/><circle cx="775.0" cy="152.7" r="1.6" fill="#45dfce" opacity="0.72"/><circle cx="783.2" cy="156.0" r="1.6" fill="#45dfce" opacity="0.57"/><circle cx="787.7" cy="148.1" r="1.6" fill="#45dfce" opacity="0.47"/><circle cx="791.3" cy="215.2" r="1.6" fill="#45dfce" opacity="0.64"/><circle cx="727.2" cy="143.5" r="1.6" fill="#45dfce" opacity="0.92"/><circle cx="768.8" cy="149.8" r="1.6" fill="#45dfce" opacity="0.86"/><circle cx="793.9" cy="216.3" r="1.6" fill="#45dfce" opacity="0.38"/><circle cx="753.4" cy="147.9" r="1.6" fill="#45dfce" opacity="0.82"/><circle cx="813.1" cy="200.3" r="1.6" fill="#45dfce" opacity="0.83"/><circle cx="783.4" cy="193.8" r="1.6" fill="#45dfce" opacity="0.58"/><circle cx="796.6" cy="164.8" r="1.6" fill="#45dfce" opacity="0.92"/><circle cx="724.4" cy="190.4" r="1.6" fill="#45dfce" opacity="0.57"/><circle cx="748.2" cy="195.7" r="1.6" fill="#45dfce" opacity="0.56"/><circle cx="762.2" cy="179.1" r="1.6" fill="#45dfce" opacity="0.64"/><circle cx="780.2" cy="188.5" r="1.6" fill="#45dfce" opacity="0.52"/><circle cx="772.6" cy="152.8" r="1.6" fill="#45dfce" opacity="0.69"/><circle cx="819.9" cy="209.7" r="1.6" fill="#45dfce" opacity="0.47"/><circle cx="763.8" cy="138.0" r="1.6" fill="#45dfce" opacity="0.78"/><circle cx="735.8" cy="134.3" r="1.6" fill="#45dfce" opacity="0.66"/><circle cx="729.9" cy="204.9" r="1.6" fill="#45dfce" opacity="0.46"/><circle cx="723.6" cy="154.2" r="1.6" fill="#45dfce" opacity="0.91"/><circle cx="805.9" cy="209.1" r="1.6" fill="#45dfce" opacity="0.47"/><circle cx="775.9" cy="176.3" r="1.6" fill="#45dfce" opacity="0.66"/><circle cx="760.4" cy="212.4" r="1.6" fill="#45dfce" opacity="0.70"/><circle cx="812.3" cy="220.0" r="1.6" fill="#45dfce" opacity="0.86"/><circle cx="734.7" cy="189.5" r="1.6" fill="#45dfce" opacity="0.56"/><circle cx="732.9" cy="203.3" r="1.6" fill="#45dfce" opacity="0.84"/><circle cx="751.7" cy="196.6" r="1.6" fill="#45dfce" opacity="0.84"/><circle cx="759.3" cy="213.2" r="1.6" fill="#45dfce" opacity="0.84"/><circle cx="792.6" cy="135.7" r="1.6" fill="#45dfce" opacity="0.35"/><circle cx="795.6" cy="168.6" r="1.6" fill="#45dfce" opacity="0.76"/><circle cx="757.4" cy="112.9" r="1.6" fill="#45dfce" opacity="0.55"/><circle cx="773.4" cy="122.3" r="1.6" fill="#45dfce" opacity="0.36"/><circle cx="764.0" cy="139.3" r="1.6" fill="#45dfce" opacity="0.84"/><circle cx="786.1" cy="138.6" r="1.6" fill="#45dfce" opacity="0.42"/><circle cx="754.5" cy="126.9" r="1.6" fill="#45dfce" opacity="0.67"/><circle cx="754.9" cy="220.2" r="1.6" fill="#45dfce" opacity="0.67"/><circle cx="759.5" cy="105.1" r="1.6" fill="#45dfce" opacity="0.47"/><circle cx="766.6" cy="139.9" r="1.6" fill="#45dfce" opacity="0.66"/><circle cx="773.0" cy="154.0" r="1.6" fill="#45dfce" opacity="0.81"/><circle cx="757.0" cy="138.1" r="1.6" fill="#45dfce" opacity="0.87"/><circle cx="790.7" cy="135.3" r="1.6" fill="#45dfce" opacity="0.92"/><circle cx="770.7" cy="116.6" r="1.6" fill="#45dfce" opacity="0.89"/><circle cx="737.1" cy="120.9" r="1.6" fill="#45dfce" opacity="0.72"/><circle cx="724.0" cy="127.2" r="1.6" fill="#45dfce" opacity="0.42"/><circle cx="797.0" cy="137.0" r="1.6" fill="#45dfce" opacity="0.66"/><circle cx="770.2" cy="204.3" r="1.6" fill="#45dfce" opacity="0.36"/><circle cx="797.0" cy="140.8" r="1.6" fill="#45dfce" opacity="0.58"/><circle cx="794.4" cy="168.8" r="1.6" fill="#45dfce" opacity="0.37"/><circle cx="760.6" cy="176.7" r="1.6" fill="#45dfce" opacity="0.86"/><circle cx="721.5" cy="144.2" r="1.6" fill="#45dfce" opacity="0.46"/><circle cx="774.4" cy="154.9" r="1.6" fill="#45dfce" opacity="0.37"/><circle cx="727.3" cy="156.4" r="1.6" fill="#45dfce" opacity="0.38"/><circle cx="787.9" cy="131.2" r="1.6" fill="#45dfce" opacity="0.52"/><circle cx="799.5" cy="186.7" r="1.6" fill="#45dfce" opacity="0.62"/><circle cx="748.6" cy="206.0" r="1.6" fill="#45dfce" opacity="0.57"/><circle cx="785.3" cy="197.6" r="1.6" fill="#45dfce" opacity="0.60"/><circle cx="777.8" cy="196.0" r="1.6" fill="#45dfce" opacity="0.60"/><circle cx="780.4" cy="189.8" r="1.6" fill="#45dfce" opacity="0.38"/><circle cx="759.3" cy="154.8" r="1.6" fill="#45dfce" opacity="0.68"/><circle cx="806.6" cy="191.7" r="1.6" fill="#45dfce" opacity="0.57"/><circle cx="785.5" cy="107.7" r="1.6" fill="#45dfce" opacity="0.55"/><circle cx="744.7" cy="138.3" r="1.6" fill="#45dfce" opacity="0.87"/><circle cx="811.1" cy="199.4" r="1.6" fill="#45dfce" opacity="0.94"/><path d="M699 231V119l87-21 63 25v113l-88 24z M699 119l62 25 88-21 M761 144v116" fill="none" stroke="#45dfce" stroke-width="1.2" opacity=".8"/><path d="M603 261 Q648 243 669 259 T725 266" fill="none" stroke="#69afff" stroke-width="2"/><circle cx="725" cy="266" r="4" fill="#69afff"/><text x="583" y="302" fill="#8193a9" font-family="monospace" font-size="10">OBSERVE / STRUCTURE / UNDERSTAND</text></svg>